<svg width="200" height="200" viewBox="0 0 200 200" fill="none" xmlns="http://www.w3.org/2000/svg">
<rect x="107" y="24" width="64" height="64" rx="8" fill="#02BF92"/>
<rect x="24.0335" y="18" width="64" height="64" rx="8" transform="rotate(5.40952 24.0335 18)" fill="#FFEC43"/>
<rect x="24" y="111" width="64" height="64" rx="8" fill="#2395FE"/>
<path d="M121.454 141.246C120.099 137.04 122.409 132.533 126.614 131.177L176.762 115.016C178.503 114.455 180.37 115.411 180.931 117.153C181.338 118.416 180.952 119.799 179.95 120.669L150.301 146.422C148.787 147.738 147.822 149.574 147.597 151.567L143.112 191.411C142.992 192.479 142.257 193.378 141.234 193.707C139.796 194.171 138.256 193.381 137.793 191.944L121.454 141.246Z" fill="#FF5353"/>
</svg>
